<svg width="1199" height="1200" viewBox="0 0 1199 1200" fill="none" xmlns="http://www.w3.org/2000/svg">
<g clip-path="url(#clip0)">
<path d="M98.8587 868.653V347.5C73.0967 346.484 48.0776 345.665 24.2151 344.933C10.9556 344.528 0 355.175 0 368.453V975.488C0 987.992 9.75422 998.312 22.2309 998.982C146.506 1005.68 310.24 1012.83 464.507 1050.23C349.379 961.427 223.367 921.309 127.635 903.333C110.943 900.206 98.8587 885.618 98.8587 868.653V868.653Z" fill="white"/>
<path d="M1100.14 343.219V868.654C1100.14 885.619 1088.06 900.207 1071.37 903.336C975.633 921.313 849.621 961.43 734.493 1050.23C888.523 1012.89 1051.84 1005.72 1176.77 998.983C1189.25 998.31 1199 987.993 1199 975.489V365.887C1199 352.91 1188.51 342.376 1175.54 342.358C1154.69 342.327 1129.06 342.522 1100.14 343.219V343.219Z" fill="white"/>
<path d="M169.388 178.368V839.831C285.973 865.478 435.308 921.407 564.235 1042.56V348.396C482.421 245.45 330.759 179.855 197.252 155.238C182.765 152.568 169.388 163.624 169.388 178.368V178.368ZM462.414 717.29C452.27 733.899 430.568 739.17 413.937 729.008C394.871 717.361 346.064 689.525 304.24 682.443C285.033 679.196 272.103 660.984 275.347 641.76C278.591 622.537 296.788 609.596 315.995 612.843C367.975 621.619 422.706 651.643 450.683 668.772C467.304 678.937 472.547 700.655 462.414 717.29V717.29ZM463.214 494.161C452.089 510.156 430.055 514.052 414.125 502.937C391.156 486.937 348.603 465.572 304.24 458.066C285.033 454.819 272.103 436.608 275.347 417.384C278.591 398.161 296.788 385.219 315.995 388.466C371.808 397.902 424.117 423.878 454.445 445.031C470.431 456.161 474.357 478.161 463.214 494.161Z" fill="white"/>
<path d="M1001.75 155.24C868.889 179.765 716.506 245.242 634.765 348.395V1042.56C763.693 921.407 913.027 865.478 1029.61 839.831V178.372C1029.61 163.628 1016.23 152.567 1001.75 155.24V155.24ZM894.76 682.442C852.936 689.525 804.129 717.36 785.063 729.007C768.43 739.172 746.728 733.894 736.586 717.29C726.453 700.654 731.696 678.937 748.317 668.772C776.294 651.642 831.025 621.619 883.005 612.842C902.212 609.572 920.409 622.537 923.653 641.76C926.898 660.984 913.967 679.195 894.76 682.442V682.442ZM894.76 458.066C850.397 465.572 807.844 486.937 784.875 502.937C768.959 514.042 746.923 510.169 735.786 494.16C724.643 478.16 728.569 456.16 744.556 445.031C774.883 423.878 827.192 397.901 883.005 388.466C902.212 385.195 920.409 398.16 923.653 417.384C926.898 436.607 913.967 454.819 894.76 458.066Z" fill="white"/>
</g>
<defs>
<clipPath id="clip0">
<rect width="1199" height="1200" fill="white"/>
</clipPath>
</defs>
</svg>
