<svg width="1384" height="1428" viewBox="0 0 1384 1428" fill="none" xmlns="http://www.w3.org/2000/svg">
<g clip-path="url(#clip0)">
<path d="M692 288.39C427.572 288.39 187.775 437.661 10.8291 680.115C-3.6097 699.979 -3.6097 727.73 10.8291 747.594C187.775 990.341 427.572 1139.61 692 1139.61C956.428 1139.61 1196.23 990.34 1373.17 747.886C1387.61 728.022 1387.61 700.271 1373.17 680.407C1196.23 437.661 956.428 288.39 692 288.39ZM710.969 1013.71C535.438 1025.1 390.484 875.832 401.526 694.429C410.585 544.866 528.077 423.639 673.031 414.291C848.562 402.899 993.516 552.169 982.474 733.572C973.132 882.843 855.64 1004.07 710.969 1013.71ZM702.192 875.248C607.632 881.382 529.493 801.051 535.721 703.484C540.534 622.861 603.952 557.719 682.091 552.461C776.651 546.327 854.79 626.658 848.562 724.225C843.466 805.14 780.048 870.282 702.192 875.248Z" fill="white"/>
</g>
<defs>
<clipPath id="clip0">
<rect width="1384" height="1428" fill="white"/>
</clipPath>
</defs>
</svg>
