<svg width="1199" height="1199" viewBox="0 0 1199 1199" fill="none" xmlns="http://www.w3.org/2000/svg">
<path d="M1103.88 169.964C1041.82 102.646 956.651 65.571 864.059 65.571C794.848 65.571 731.464 87.4522 675.663 130.602C647.507 152.382 621.994 179.029 599.5 210.131C577.015 179.038 551.493 152.382 523.328 130.602C467.536 87.4522 404.152 65.571 334.941 65.571C242.349 65.571 157.175 102.646 95.1081 169.964C33.7822 236.495 0 327.386 0 425.906C0 527.308 37.7889 620.129 118.919 718.027C191.497 805.597 295.807 894.494 416.602 997.432C457.849 1032.59 504.602 1072.43 553.149 1114.88C565.974 1126.11 582.43 1132.3 599.5 1132.3C616.56 1132.3 633.026 1126.11 645.833 1114.9C694.379 1072.44 741.16 1032.58 782.425 997.405C903.202 894.485 1007.51 805.597 1080.09 718.018C1161.22 620.129 1199 527.308 1199 425.897C1199 327.386 1165.22 236.495 1103.88 169.964Z" fill="white"/>
</svg>
